# xmcd
#
# Track frame offsets: 
#        150
#        14515
#        28292
#        42050
#        55140
#        67040
#        81030
#        93687
#        108530
#        122827
#        135720
#        148605
#        161640
#        174630
#        188317
#        200797
#        215027
#        229922
#        245155
#        259615
#        273987
#        288990
#        303440
#        327957
#
# Disc length: 4501 seconds
#
# Revision: 1
# Processed by: cddbd v1.5.2PL0 Copyright (c) Steve Scherf et al.
# Submitted via: ExactAudioCopy v1.0b3
#
DISCID=6f119318
DTITLE=Various Artist - Alabama: Black Secular and Religious Music (192
DTITLE=7-1934)
DYEAR=2011
DGENRE=Gospel
TTITLE0=Wiley Barner - My Gal Treats Me Mean (But I Can't Leave Her Al
TTITLE0=one)
TTITLE1=Wiley Barner - If You Want A Good Woman - Get One Long And Tal
TTITLE1=l
TTITLE2=(Red Hot) Ole Mose - Molly Man
TTITLE3=Moses Mason - John The Baptist
TTITLE4=Moses Mason - Go Wash In The Beautiful Stream
TTITLE5=Moses Mason - Christ Is Coming Again
TTITLE6=Moses Mason - The Horse Paweth In The Valley
TTITLE7=Moses Mason - Judgement Day In The Morning
TTITLE8=Moses Mason - Red Cross The Disciple Of Christ Today
TTITLE9=(Red Hot) Ole Mose - Shrimp Man
TTITLE10=Edward Thompson - Showers Of Rain Blues
TTITLE11=Tenderfoot Edwards - Florida Bound
TTITLE12=Tenderfoot Edwards - Seven Sister Blues
TTITLE13=Tenderfoot Edwards - Up On The Hill Blues
TTITLE14=Tenderfoot Edwards - When You Dream Of Muddy Water
TTITLE15=Edward Thompson - West Virginia Blues
TTITLE16=Slim Duckett and Pig Norwood - When The Saints Go Marching In
TTITLE17=Slim Duckett and Pig Norwood - Sister Mary Wore Three Lengths O
TTITLE17=f Chain
TTITLE18=Slim Duckett and Pig Norwood - I Want To Go Where Jesus Is
TTITLE19=Slim Duckett and Pig Norwood - You Gotta Stand Judgement For Yo
TTITLE19=urself
TTITLE20=Marshall Owens - Texas Blues
TTITLE21=Marshall Owens - Try Me One More Time
TTITLE22=Tom Bradford - Going North
TTITLE23=Tom Bradford - I Can't Get No Hearin' From My Babe
EXTD=
EXTT0=
EXTT1=
EXTT2=
EXTT3=
EXTT4=
EXTT5=
EXTT6=
EXTT7=
EXTT8=
EXTT9=
EXTT10=
EXTT11=
EXTT12=
EXTT13=
EXTT14=
EXTT15=
EXTT16=
EXTT17=
EXTT18=
EXTT19=
EXTT20=
EXTT21=
EXTT22=
EXTT23=
PLAYORDER=
